<?xml version="1.0" standalone="no"?><!DOCTYPE svg PUBLIC "-//W3C//DTD SVG 1.1//EN" "http://www.w3.org/Graphics/SVG/1.1/DTD/svg11.dtd"><svg t="1524878005010" class="icon" style="" viewBox="0 0 1024 1024" version="1.1" xmlns="http://www.w3.org/2000/svg" p-id="6229" xmlns:xlink="http://www.w3.org/1999/xlink" width="64" height="64"><defs><style type="text/css"></style></defs><path d="M472.8 108.5c-6.4-5.5-14.3-8.1-22.3-7.3-6.7 0.5-16.4 3.8-27.5 16.8L228.3 350.2l-101.1-101c-22.5-19.5-43.1-7.6-50.9 1.3-10 11.5-14.2 31.5 6.7 49.6l118.6 116.2c3.3 2.9 6.7 4.8 10 6.4 11.6 9.8 31.5 13.8 49.5-7.1l214.2-254.8c18-21.1 8-43.3-2.5-52.3z m-49.4 438.3H115.5c-28 0-50.6 22.7-50.6 50.6v307.9c0 28 22.7 50.6 50.6 50.6h307.9c28 0 50.6-22.7 50.6-50.6V597.4c0-27.9-22.6-50.6-50.6-50.6z m-11.8 307.4c0 21.7-17.6 39.4-39.4 39.4H166.7c-21.7 0-39.4-17.6-39.4-39.4V648.7c0-21.7 17.6-39.4 39.4-39.4h205.5c21.7 0 39.4 17.6 39.4 39.4v205.5zM908.9 67H601c-28 0-50.6 22.7-50.6 50.6v307.9c0 28 22.7 50.6 50.6 50.6h307.9c28 0 50.6-22.7 50.6-50.6V117.7c0.1-28-22.6-50.7-50.6-50.7z m-11.8 306.4c0 21.7-17.6 39.4-39.4 39.4H652.2c-21.7 0-39.4-17.6-39.4-39.4V168.9c0-21.7 17.6-39.4 39.4-39.4h205.5c21.7 0 39.4 17.6 39.4 39.4v204.5z m11.8 173.9H601c-28 0-50.6 22.7-50.6 50.6v307.9c0 28 22.7 50.6 50.6 50.6h307.9c28 0 50.6-22.7 50.6-50.6V597.9c0.1-28-22.6-50.6-50.6-50.6z m-11.8 307.3c0 21.7-17.6 39.4-39.4 39.4H652.2c-21.7 0-39.4-17.6-39.4-39.4V649.1c0-21.7 17.6-39.4 39.4-39.4h205.5c21.7 0 39.4 17.6 39.4 39.4v205.5z" p-id="6230"></path></svg>