<?xml version="1.0" standalone="no"?><!DOCTYPE svg PUBLIC "-//W3C//DTD SVG 1.1//EN" "http://www.w3.org/Graphics/SVG/1.1/DTD/svg11.dtd"><svg t="1524899175818" class="icon" style="" viewBox="0 0 1267 1024" version="1.1" xmlns="http://www.w3.org/2000/svg" p-id="21719" xmlns:xlink="http://www.w3.org/1999/xlink" width="79.1875" height="64"><defs><style type="text/css"></style></defs><path d="M296.367265 263.664671a263.664671 218.698603 90 1 0 437.397206 0 263.664671 218.698603 90 1 0-437.397206 0Z" fill="" p-id="21720"></path><path d="M361.772455 568.207585S40.878244 623.393214 40.878244 1021.956088h476.231536V598.866267s-83.800399 26.570858-28.61477 96.063873v57.229541l-126.722555-183.952096z" fill="" p-id="21721"></path><path d="M668.359281 568.207585s322.938124 57.229541 322.938124 455.792415H515.065868V598.866267s83.800399 26.570858 28.614771 96.063873v57.229541l124.678642-183.952096z" fill="" p-id="21722"></path><path d="M102.195609 476.231537a102.195609 87.888224 90 1 0 175.776447 0 102.195609 87.888224 90 1 0-175.776447 0Z" fill="" p-id="21723"></path><path d="M143.073852 611.129741S2.043912 637.700599 2.043912 780.774451c61.317365 0 61.317365-4.087824 61.317365-4.087824s36.790419-124.678643 79.712575-124.678643v-40.878243z" fill="" p-id="21724"></path><path d="M739.896208 476.231537a102.195609 87.888224 90 1 0 175.776447 0 102.195609 87.888224 90 1 0-175.776447 0Z" fill="" p-id="21725"></path><path d="M874.794411 611.129741s141.02994 26.570858 141.02994 169.64471c-61.317365 0-61.317365-4.087824-61.317365-4.087824s-36.790419-124.678643-79.712575-124.678643v-40.878243zM889.101796 188.03992h376.079841V245.269461H889.101796z" fill="" p-id="21726"></path><path d="M1105.143313 28.533014v376.07984h-57.229541v-376.07984z" fill="" p-id="21727"></path></svg>