<?xml version="1.0" standalone="no"?><!DOCTYPE svg PUBLIC "-//W3C//DTD SVG 1.1//EN" "http://www.w3.org/Graphics/SVG/1.1/DTD/svg11.dtd"><svg t="1524898448490" class="icon" style="" viewBox="0 0 1260 1024" version="1.1" xmlns="http://www.w3.org/2000/svg" p-id="10847" xmlns:xlink="http://www.w3.org/1999/xlink" width="78.75" height="64"><defs><style type="text/css"></style></defs><path d="M1219.11296 764.691692h-101.218462V521.216a25.048615 25.048615 0 0 0-24.733538-25.284923H1092.452037l-431.970462-0.630154V386.835692h221.971693a41.747692 41.747692 0 0 0 41.196307-42.141538V42.141538A41.747692 41.747692 0 0 0 882.453268 0H376.912345a41.747692 41.747692 0 0 0-41.196308 42.141538v302.552616a41.747692 41.747692 0 0 0 41.196308 42.141538h221.971692v108.386462L166.992345 494.670769a24.969846 24.969846 0 0 0-24.733539 25.206154v12.445539a13.390769 13.390769 0 0 0 0.157539 3.072v229.29723H41.197883a41.747692 41.747692 0 0 0-41.196308 42.06277v175.104A41.747692 41.747692 0 0 0 41.197883 1024h264.034462a41.747692 41.747692 0 0 0 41.196307-42.141538v-175.025231a41.747692 41.747692 0 0 0-41.196307-42.141539H204.013883V557.686154l394.870154 0.551384v206.454154H497.665575a41.747692 41.747692 0 0 0-41.196307 42.141539v175.025231a41.747692 41.747692 0 0 0 41.196307 42.141538H761.700037a41.747692 41.747692 0 0 0 41.196308-42.141538v-175.025231a41.747692 41.747692 0 0 0-41.196308-42.141539H660.481575v-206.375384l395.815385 0.551384v205.824h-101.218462a41.747692 41.747692 0 0 0-41.196307 42.141539v175.025231a41.747692 41.747692 0 0 0 41.196307 42.141538h264.034462a41.747692 41.747692 0 0 0 41.196308-42.141538v-175.025231a41.747692 41.747692 0 0 0-41.196308-42.141539z" p-id="10848"></path></svg>