<?xml version="1.0" standalone="no"?><!DOCTYPE svg PUBLIC "-//W3C//DTD SVG 1.1//EN" "http://www.w3.org/Graphics/SVG/1.1/DTD/svg11.dtd"><svg t="1524898753536" class="icon" style="" viewBox="0 0 1024 1024" version="1.1" xmlns="http://www.w3.org/2000/svg" p-id="15521" xmlns:xlink="http://www.w3.org/1999/xlink" width="64" height="64"><defs><style type="text/css"></style></defs><path d="M832.8 64.2H194.5c-86.3 0-129.4 42.8-129.4 128.5V831c0 86.3 43.1 129.4 129.4 129.4h638.3c85.6 0 128.5-43.1 128.4-129.4V192.7c0-85.7-42.8-128.5-128.4-128.5z m43.8 644.3L725.3 859.8c-6 6-12.9 9-20.9 9-8 0-14.9-3-20.9-9-6-6-9-12.9-9-20.9v-85.6h-464c-18.6 0-33.9-6.3-45.8-18.9-12.6-12-18.9-27.2-18.9-45.8v-1c0-18.6 6.3-33.9 18.9-45.8 11.9-12.6 27.2-18.9 45.8-18.9h464v-86.6c0-8 3-14.9 9-20.9 6-6 12.9-9 20.9-9 8 0 14.9 3 20.9 9l151.4 151.3c6 6 9 12.9 9 20.9-0.1 7.9-3.1 14.9-9.1 20.9z m10-353.5c0 18.6-6.3 33.9-18.9 45.8-11.9 12.6-27.2 18.9-45.8 18.9h-464v86.6c0 8-3 14.9-9 20.9-6 6-12.9 9-20.9 9-8 0-14.9-3-20.9-9L155.7 375.9c-6-6-9-12.9-9-20.9 0-8 3-14.9 9-20.9L307 182.7c6-6 12.9-9 20.9-9 8 0 14.9 3 20.9 9 6 6 9 12.9 9 20.9v85.6h464c18.6 0 33.9 6.3 45.8 18.9 12.6 12 18.9 27.2 18.9 45.8v1.1z" p-id="15522"></path></svg>