<?xml version="1.0" standalone="no"?><!DOCTYPE svg PUBLIC "-//W3C//DTD SVG 1.1//EN" "http://www.w3.org/Graphics/SVG/1.1/DTD/svg11.dtd"><svg t="1524898725932" class="icon" style="" viewBox="0 0 1207 1024" version="1.1" xmlns="http://www.w3.org/2000/svg" p-id="14818" xmlns:xlink="http://www.w3.org/1999/xlink" width="75.4375" height="64"><defs><style type="text/css"></style></defs><path d="M1181.538462 78.769231h-105.025641c-15.753846 0-26.25641 10.502564-26.256411 26.25641v131.282051h-52.51282V52.512821c0-15.753846-10.502564-26.25641-26.256411-26.256411h-105.025641c-15.753846 0-26.25641 10.502564-26.25641 26.256411v131.282051h-52.51282V52.512821c0-15.753846-10.502564-26.25641-26.256411-26.256411h-105.025641c-15.753846 0-26.25641 10.502564-26.25641 26.256411v131.282051h-52.51282V105.025641c0-15.753846-10.502564-26.25641-26.256411-26.25641h-105.025641c-15.753846 0-26.25641 10.502564-26.25641 26.25641v131.282051h-52.51282V131.282051c0-78.769231-47.261538-131.282051-183.794872-131.282051S0 52.512821 0 131.282051v630.153846h2.625641c39.384615-34.133333 99.774359-52.512821 181.169231-52.51282 81.394872 0 141.784615 18.379487 181.169231 52.51282h2.625641v-52.51282h52.51282v131.282051c0 15.753846 10.502564 26.25641 26.25641 26.25641h105.025641c15.753846 0 26.25641-10.502564 26.256411-26.25641v-183.794872h52.51282v131.282052c0 15.753846 10.502564 26.25641 26.25641 26.25641h105.025641c15.753846 0 26.25641-10.502564 26.256411-26.25641v-131.282052h52.51282v131.282052c0 15.753846 10.502564 26.25641 26.25641 26.25641h105.025641c15.753846 0 26.25641-10.502564 26.256411-26.25641v-78.769231h52.51282v131.282051c0 15.753846 10.502564 26.25641 26.256411 26.25641h105.025641c15.753846 0 26.25641-10.502564 26.25641-26.25641V105.025641c0-15.753846-10.502564-26.25641-26.25641-26.25641zM420.102564 630.153846h-52.51282V315.076923h52.51282v315.076923z m210.051282-52.51282h-52.51282V262.564103h52.51282v315.076923z m210.051282 0h-52.51282V262.564103h52.51282v315.076923z m210.051282 52.51282h-52.51282V315.076923h52.51282v315.076923z" p-id="14819"></path><path d="M183.794872 761.435897c-136.533333 0-183.794872 52.512821-183.794872 131.282052s47.261538 131.282051 183.794872 131.282051 183.794872-52.512821 183.794872-131.282051-47.261538-131.282051-183.794872-131.282052z" p-id="14820"></path></svg>