<?xml version="1.0" standalone="no"?><!DOCTYPE svg PUBLIC "-//W3C//DTD SVG 1.1//EN" "http://www.w3.org/Graphics/SVG/1.1/DTD/svg11.dtd"><svg t="1524898569366" class="icon" style="" viewBox="0 0 1024 1024" version="1.1" xmlns="http://www.w3.org/2000/svg" p-id="11609" xmlns:xlink="http://www.w3.org/1999/xlink" width="64" height="64"><defs><style type="text/css"></style></defs><path d="M224.953702 192.003999h127.800062v127.768072H224.953702zM416.637801 192.003999h127.768072v127.768072H416.669791zM224.953702 447.540144h127.800062v127.800062H224.953702zM416.637801 447.540144h127.768072v127.800062H416.669791zM224.953702 703.140269h127.800062v127.736082H224.953702zM416.637801 703.140269h127.768072v127.736082H416.669791z" p-id="11610"></path><path d="M735.930022 512.15995v-479.850047a31.990003 31.990003 0 0 0-31.990003-31.990003H65.291596a31.990003 31.990003 0 0 0-31.990003 31.990003v959.700094a31.990003 31.990003 0 0 0 31.990003 31.990003h895.720088a31.990003 31.990003 0 0 0 31.990003-31.990003v-447.860044a31.990003 31.990003 0 0 0-31.990003-31.990003H735.930022zM671.950016 959.700094H96.129959V63.980006h575.820057v895.720088z m255.920025 0h-191.940019V575.820056h191.940019v383.880038z" p-id="11611"></path></svg>