<?xml version="1.0" standalone="no"?><!DOCTYPE svg PUBLIC "-//W3C//DTD SVG 1.1//EN" "http://www.w3.org/Graphics/SVG/1.1/DTD/svg11.dtd"><svg t="1524899125232" class="icon" style="" viewBox="0 0 1024 1024" version="1.1" xmlns="http://www.w3.org/2000/svg" p-id="19523" xmlns:xlink="http://www.w3.org/1999/xlink" width="64" height="64"><defs><style type="text/css"></style></defs><path d="M574.635 437.788h123.997S813.86 480.587 813.86 553.014c0 72.429-38.4 362.683-136.072 376.417H348.015c-97.39 0-127.843-294.65-127.843-376.417 0-63.657 117.696-115.226 117.696-115.226h123.188s9.323 48.277 27.983 66.95c-21.952 25.231-48.302 215.073-30.735 271.041 17.567 55.967 53.691 93.056 53.691 93.056s52.766-42.799 59.941-93.056c7.163-50.154 0.502-237.039-22.545-273.253 23.046-18.648 25.244-64.738 25.244-64.738zM353.222 222.689c0-90.458 73.341-163.787 163.787-163.787 90.459 0 163.787 73.329 163.787 163.787 0 90.458-73.328 163.787-163.787 163.787-90.446 0-163.787-73.329-163.787-163.787z" p-id="19524"></path><path d="M830.874 229.273m-97.943 0a97.943 97.943 0 1 0 195.886 0 97.943 97.943 0 1 0-195.886 0Z" p-id="19525"></path><path d="M938.629 363.173H732.301c-16.333 0-43.532 3.215-44.084 13.479-0.554 10.236 106.159 29.166 147.247 97.068 41.089 67.901 34.016 138.478 19.021 191.178l41.667 0.593c57.087 0 92.194-20.834 103.178-70.783l18.312-152.521c-0.001-43.622-35.379-79.014-79.013-79.014z" p-id="19526"></path><path d="M193.126 229.273m-97.943 0a97.943 97.943 0 1 0 195.886 0 97.943 97.943 0 1 0-195.886 0Z" p-id="19527"></path><path d="M85.371 363.173h206.328c16.333 0 43.532 3.215 44.085 13.479 0.553 10.236-106.161 29.166-147.249 97.068-41.088 67.901-34.016 138.478-19.021 191.178l-41.667 0.593c-57.086 0-92.194-20.834-103.176-70.783L6.358 442.186c0-43.621 35.378-79.013 79.013-79.013z" p-id="19528"></path></svg>